<svg xmlns="http://www.w3.org/2000/svg" width="420" height="32" viewBox="0 0 420 32" role="img" aria-label="lightsaber divider">
  <title>— lightsaber —</title>
  <metadata>Copyright (c) 2026 Joshuel Ranola (@joshuel09). All rights reserved. Unauthorised copying or redistribution prohibited. https://github.com/joshuel09</metadata>
  <defs>
    <linearGradient id="steel" x1="0" y1="0" x2="0" y2="1">
      <stop offset="0%" stop-color="#6f7884"/><stop offset="18%" stop-color="#eef2f7"/>
      <stop offset="40%" stop-color="#c3ccd6"/><stop offset="58%" stop-color="#8d96a2"/>
      <stop offset="80%" stop-color="#4c545e"/><stop offset="100%" stop-color="#242a32"/>
    </linearGradient>
    <linearGradient id="steel2" x1="0" y1="0" x2="0" y2="1">
      <stop offset="0%" stop-color="#9aa4b1"/><stop offset="20%" stop-color="#ffffff"/>
      <stop offset="45%" stop-color="#dbe2ea"/><stop offset="66%" stop-color="#97a1ad"/>
      <stop offset="100%" stop-color="#333b45"/>
    </linearGradient>
    <linearGradient id="blk" x1="0" y1="0" x2="0" y2="1">
      <stop offset="0%" stop-color="#454c56"/><stop offset="22%" stop-color="#1c2027"/>
      <stop offset="60%" stop-color="#0b0e13"/><stop offset="100%" stop-color="#030508"/>
    </linearGradient>
    <linearGradient id="brass2" x1="0" y1="0" x2="0" y2="1">
      <stop offset="0%" stop-color="#b08a33"/><stop offset="22%" stop-color="#ffeec0"/>
      <stop offset="52%" stop-color="#d4ab51"/><stop offset="100%" stop-color="#5e4512"/>
    </linearGradient>
    <radialGradient id="jewel">
      <stop offset="0%" stop-color="#fff3c4"/><stop offset="45%" stop-color="#e8a33d"/>
      <stop offset="100%" stop-color="#7a4a0d"/>
    </radialGradient>
    <linearGradient id="halo" x1="0" y1="0" x2="0" y2="1">
      <stop offset="0%" stop-color="#4BD5EE" stop-opacity="0"/>
      <stop offset="50%" stop-color="#4BD5EE" stop-opacity=".66"/>
      <stop offset="100%" stop-color="#4BD5EE" stop-opacity="0"/>
    </linearGradient>
    <radialGradient id="burst">
      <stop offset="0%" stop-color="#fff" stop-opacity=".95"/>
      <stop offset="42%" stop-color="#4BD5EE" stop-opacity=".7"/>
      <stop offset="100%" stop-color="#4BD5EE" stop-opacity="0"/>
    </radialGradient>
  </defs>
  <style>
    @keyframes tw { 0%,100% { opacity:.15 } 50% { opacity:.95 } }
    @keyframes hum  { from { opacity:.52 } to { opacity:.98 } }
    @keyframes humc { from { opacity:.80 } to { opacity:1 } }
    @keyframes blade { 0% { transform:scaleX(0) } 2.18% { transform:scaleX(0) } 4.21% { transform:scaleX(1.06) } 5.45% { transform:scaleX(1) } 25.86% { transform:scaleX(1) } 27.57% { transform:scaleX(0) } 33.02% { transform:scaleX(0) } 35.05% { transform:scaleX(1.06) } 36.29% { transform:scaleX(1) } 51.09% { transform:scaleX(1) } 52.80% { transform:scaleX(0) } 63.24% { transform:scaleX(0) } 65.26% { transform:scaleX(1.06) } 66.51% { transform:scaleX(1) } 84.50% { transform:scaleX(1) } 86.21% { transform:scaleX(0) } 100% { transform:scaleX(0) } }
    @keyframes cl0 { 0%,18.01% { opacity:0; transform:scale(.3) } 19.03% { opacity:1; transform:scale(1.12) } 20.82% { opacity:0; transform:scale(1.65) } 100% { opacity:0 } }
    @keyframes sp0 { 0%,18.01% { opacity:0; transform:scale(.2) } 19.03% { opacity:1 } 21.60% { opacity:0; transform:scale(2.5) } 100% { opacity:0 } }
    @keyframes cl1 { 0%,43.03% { opacity:0; transform:scale(.3) } 44.05% { opacity:1; transform:scale(1.12) } 45.84% { opacity:0; transform:scale(1.65) } 100% { opacity:0 } }
    @keyframes sp1 { 0%,43.03% { opacity:0; transform:scale(.2) } 44.05% { opacity:1 } 46.62% { opacity:0; transform:scale(2.5) } 100% { opacity:0 } }
    @keyframes cl2 { 0%,44.92% { opacity:0; transform:scale(.3) } 45.95% { opacity:1; transform:scale(1.12) } 47.74% { opacity:0; transform:scale(1.65) } 100% { opacity:0 } }
    @keyframes sp2 { 0%,44.92% { opacity:0; transform:scale(.2) } 45.95% { opacity:1 } 48.52% { opacity:0; transform:scale(2.5) } 100% { opacity:0 } }
    @keyframes cl3 { 0%,75.07% { opacity:0; transform:scale(.3) } 76.09% { opacity:1; transform:scale(1.12) } 77.88% { opacity:0; transform:scale(1.65) } 100% { opacity:0 } }
    @keyframes sp3 { 0%,75.07% { opacity:0; transform:scale(.2) } 76.09% { opacity:1 } 78.66% { opacity:0; transform:scale(2.5) } 100% { opacity:0 } }
    .bd   { transform-box: fill-box; transform-origin: 0% 50%;
             animation: blade 12.84s cubic-bezier(.2,.8,.3,1) infinite both; }
    .halo { animation: hum .17s ease-in-out infinite alternate both; }
    .core { animation: humc .12s ease-in-out infinite alternate both; }
    .cl   { opacity: 0; transform-box: view-box; animation: 12.84s linear infinite both; }
    .spk circle { transform-box: view-box; animation: 12.84s linear infinite both; }
    .c0 { animation-name: cl0; } .c0 .spk circle { animation-name: sp0; }
    .c1 { animation-name: cl1; } .c1 .spk circle { animation-name: sp1; }
    .c2 { animation-name: cl2; } .c2 .spk circle { animation-name: sp2; }
    .c3 { animation-name: cl3; } .c3 .spk circle { animation-name: sp3; }
    @media (prefers-reduced-motion: reduce) {
      .bd, .halo, .core, .cl, .spk circle, .st { animation: none; }
      .bd { transform: none; } .cl { opacity: 0; }
    }
  </style>
  <rect width="420" height="32" fill="#000"/>
  <circle class="st" cx="405.6" cy="2.5" r="0.60" opacity="0.87" style="animation:tw 2.9s ease-in-out -1.40s infinite"/><circle class="st" cx="175.7" cy="26.3" r="0.76" opacity="0.63" style="animation:tw 2.7s ease-in-out -2.33s infinite"/><circle class="st" cx="8.1" cy="14.2" r="0.87" opacity="0.45" style="animation:tw 2.6s ease-in-out -1.04s infinite"/><circle class="st" cx="270.9" cy="16.6" r="0.77" opacity="0.59" style="animation:tw 2.8s ease-in-out -2.78s infinite"/><circle class="st" cx="47.2" cy="2.8" r="0.55" opacity="0.47" style="animation:tw 2.4s ease-in-out -0.93s infinite"/><circle class="st" cx="309.8" cy="30.7" r="0.46" opacity="0.68" style="animation:tw 2.5s ease-in-out -2.70s infinite"/><circle class="st" cx="418.2" cy="22.3" r="0.47" opacity="0.67" style="animation:tw 2.8s ease-in-out -1.62s infinite"/><circle class="st" cx="93.9" cy="0.9" r="0.84" opacity="0.82" style="animation:tw 2.7s ease-in-out -1.13s infinite"/><circle class="st" cx="18.7" cy="17.1" r="0.98" opacity="0.67" style="animation:tw 2.4s ease-in-out -0.34s infinite"/><circle class="st" cx="357.0" cy="22.8" r="0.62" opacity="0.68" style="animation:tw 2.4s ease-in-out -1.68s infinite"/><circle class="st" cx="11.8" cy="9.6" r="0.77" opacity="0.66" style="animation:tw 2.6s ease-in-out -1.99s infinite"/><circle class="st" cx="104.3" cy="25.0" r="0.99" opacity="0.71" style="animation:tw 3.5s ease-in-out -0.75s infinite"/><circle class="st" cx="410.2" cy="1.6" r="0.82" opacity="0.53" style="animation:tw 2.4s ease-in-out -0.83s infinite"/><circle class="st" cx="159.6" cy="0.1" r="0.63" opacity="0.87" style="animation:tw 3.3s ease-in-out -2.00s infinite"/><circle class="st" cx="404.9" cy="15.5" r="0.94" opacity="0.85" style="animation:tw 2.9s ease-in-out -1.48s infinite"/><circle class="st" cx="66.1" cy="30.0" r="0.67" opacity="0.54" style="animation:tw 2.5s ease-in-out -2.35s infinite"/><circle class="st" cx="121.2" cy="21.6" r="0.86" opacity="0.87" style="animation:tw 3.3s ease-in-out -2.85s infinite"/><circle class="st" cx="90.8" cy="1.2" r="0.47" opacity="0.54" style="animation:tw 2.3s ease-in-out -0.44s infinite"/><circle class="st" cx="295.7" cy="14.1" r="0.62" opacity="0.67" style="animation:tw 2.5s ease-in-out -1.08s infinite"/><circle class="st" cx="162.9" cy="1.8" r="1.06" opacity="0.85" style="animation:tw 2.7s ease-in-out -1.87s infinite"/><circle class="st" cx="10.0" cy="12.1" r="0.84" opacity="0.64" style="animation:tw 2.4s ease-in-out -1.44s infinite"/><circle class="st" cx="103.5" cy="20.0" r="0.90" opacity="0.70" style="animation:tw 3.4s ease-in-out -2.37s infinite"/><circle class="st" cx="51.0" cy="31.3" r="0.88" opacity="0.69" style="animation:tw 2.9s ease-in-out -2.43s infinite"/><circle class="st" cx="125.7" cy="21.4" r="0.70" opacity="0.70" style="animation:tw 3.0s ease-in-out -1.58s infinite"/><circle class="st" cx="248.7" cy="1.2" r="0.59" opacity="0.62" style="animation:tw 2.7s ease-in-out -1.12s infinite"/><circle class="st" cx="130.6" cy="9.8" r="0.76" opacity="0.52" style="animation:tw 2.4s ease-in-out -2.70s infinite"/><circle class="st" cx="276.8" cy="25.7" r="0.67" opacity="0.85" style="animation:tw 2.8s ease-in-out -1.42s infinite"/><circle class="st" cx="9.3" cy="6.7" r="0.86" opacity="0.79" style="animation:tw 2.6s ease-in-out -2.45s infinite"/><circle class="st" cx="275.0" cy="1.0" r="0.61" opacity="0.90" style="animation:tw 2.9s ease-in-out -0.01s infinite"/><circle class="st" cx="281.9" cy="11.8" r="0.51" opacity="0.87" style="animation:tw 2.8s ease-in-out -2.02s infinite"/><circle class="st" cx="141.1" cy="28.6" r="0.84" opacity="0.60" style="animation:tw 2.6s ease-in-out -2.78s infinite"/><circle class="st" cx="270.2" cy="31.2" r="0.57" opacity="0.64" style="animation:tw 3.2s ease-in-out -2.94s infinite"/><circle class="st" cx="321.7" cy="14.7" r="1.04" opacity="0.79" style="animation:tw 2.7s ease-in-out -1.12s infinite"/><circle class="st" cx="243.4" cy="32.0" r="0.87" opacity="0.63" style="animation:tw 3.1s ease-in-out -0.30s infinite"/><circle class="st" cx="226.3" cy="19.7" r="0.94" opacity="0.86" style="animation:tw 2.3s ease-in-out -1.93s infinite"/><circle class="st" cx="201.6" cy="8.7" r="0.77" opacity="0.57" style="animation:tw 2.5s ease-in-out -2.69s infinite"/><circle class="st" cx="257.0" cy="2.8" r="0.67" opacity="0.48" style="animation:tw 2.7s ease-in-out -1.10s infinite"/><circle class="st" cx="23.8" cy="2.3" r="0.73" opacity="0.89" style="animation:tw 2.6s ease-in-out -2.77s infinite"/><circle class="st" cx="48.8" cy="26.1" r="0.53" opacity="0.76" style="animation:tw 2.4s ease-in-out -2.72s infinite"/><circle class="st" cx="385.2" cy="7.4" r="1.09" opacity="0.77" style="animation:tw 2.3s ease-in-out -2.61s infinite"/><circle class="st" cx="179.4" cy="13.6" r="0.74" opacity="0.55" style="animation:tw 3.5s ease-in-out -2.13s infinite"/><circle class="st" cx="318.6" cy="26.2" r="0.62" opacity="0.77" style="animation:tw 3.3s ease-in-out -1.09s infinite"/><circle class="st" cx="274.6" cy="18.9" r="1.02" opacity="0.67" style="animation:tw 2.7s ease-in-out -1.87s infinite"/><circle class="st" cx="323.5" cy="21.7" r="0.70" opacity="0.71" style="animation:tw 3.5s ease-in-out -1.98s infinite"/><circle class="st" cx="309.8" cy="5.8" r="0.76" opacity="0.69" style="animation:tw 2.6s ease-in-out -1.67s infinite"/><circle class="st" cx="39.4" cy="4.5" r="0.69" opacity="0.81" style="animation:tw 3.4s ease-in-out -0.84s infinite"/>
  <g class="bd">
    <rect class="halo" x="68.7" y="6.7" width="343.3" height="18.7" fill="url(#halo)"/>
    <rect class="body" x="68.7" y="12.0" width="343.3" height="8.0" rx="4.0" fill="#4BD5EE" opacity=".9"/>
    <rect class="core" x="68.7" y="14.5" width="343.3" height="3.1" rx="1.5" fill="#fff"/>
    <circle cx="68.7" cy="16.0" r="10.0" fill="url(#burst)"/>
  </g>
  <g class="cl c0" style="transform-origin:373.1px 16.0px"><circle cx="373.1" cy="16.0" r="12.7" fill="url(#burst)"/><g class="spk" fill="#fff"><circle cx="373.1" cy="11.9" r="0.98" style="transform-origin:373.1px 16.0px"/><circle cx="366.3" cy="15.5" r="1.24" style="transform-origin:373.1px 16.0px"/><circle cx="362.1" cy="12.8" r="1.01" style="transform-origin:373.1px 16.0px"/><circle cx="362.1" cy="10.0" r="1.13" style="transform-origin:373.1px 16.0px"/><circle cx="385.9" cy="12.9" r="0.62" style="transform-origin:373.1px 16.0px"/><circle cx="385.7" cy="13.0" r="0.95" style="transform-origin:373.1px 16.0px"/></g></g><g class="cl c1" style="transform-origin:153.7px 16.0px"><circle cx="153.7" cy="16.0" r="12.7" fill="url(#burst)"/><g class="spk" fill="#fff"><circle cx="156.6" cy="18.3" r="1.20" style="transform-origin:153.7px 16.0px"/><circle cx="166.0" cy="19.3" r="1.13" style="transform-origin:153.7px 16.0px"/><circle cx="161.5" cy="18.5" r="0.81" style="transform-origin:153.7px 16.0px"/><circle cx="146.4" cy="11.9" r="1.21" style="transform-origin:153.7px 16.0px"/><circle cx="159.0" cy="9.2" r="1.20" style="transform-origin:153.7px 16.0px"/><circle cx="147.6" cy="19.3" r="0.83" style="transform-origin:153.7px 16.0px"/></g></g><g class="cl c2" style="transform-origin:197.4px 16.0px"><circle cx="197.4" cy="16.0" r="12.7" fill="url(#burst)"/><g class="spk" fill="#fff"><circle cx="191.2" cy="11.0" r="0.93" style="transform-origin:197.4px 16.0px"/><circle cx="195.0" cy="18.2" r="1.02" style="transform-origin:197.4px 16.0px"/><circle cx="205.9" cy="22.1" r="0.97" style="transform-origin:197.4px 16.0px"/><circle cx="209.8" cy="15.9" r="1.18" style="transform-origin:197.4px 16.0px"/><circle cx="205.8" cy="21.5" r="0.57" style="transform-origin:197.4px 16.0px"/><circle cx="199.2" cy="16.3" r="0.54" style="transform-origin:197.4px 16.0px"/></g></g><g class="cl c3" style="transform-origin:252.0px 16.0px"><circle cx="252.0" cy="16.0" r="12.7" fill="url(#burst)"/><g class="spk" fill="#fff"><circle cx="248.4" cy="16.3" r="0.47" style="transform-origin:252.0px 16.0px"/><circle cx="238.9" cy="17.5" r="0.80" style="transform-origin:252.0px 16.0px"/><circle cx="264.7" cy="22.1" r="1.13" style="transform-origin:252.0px 16.0px"/><circle cx="260.0" cy="11.2" r="1.05" style="transform-origin:252.0px 16.0px"/><circle cx="241.2" cy="9.7" r="0.77" style="transform-origin:252.0px 16.0px"/><circle cx="245.2" cy="7.9" r="0.88" style="transform-origin:252.0px 16.0px"/></g></g>
  <g><circle cx="3.20" cy="19.48" r="1.73" fill="none" stroke="url(#steel)" stroke-width="0.73"/><rect x="4.67" y="8.40" width="3.52" height="15.20" rx="1.07" fill="url(#steel2)"/><rect x="7.93" y="8.40" width="0.51" height="15.20" rx="0.13" fill="#05070a" opacity=".55"/><rect x="8.19" y="9.67" width="15.68" height="12.67" rx="0.80" fill="url(#steel)"/><rect x="23.61" y="9.67" width="0.51" height="12.67" rx="0.13" fill="#05070a" opacity=".55"/><rect x="23.87" y="9.98" width="16.64" height="12.03" rx="0.47" fill="url(#blk)"/><rect x="24.39" y="9.98" width="1.33" height="12.03" rx="0.27" fill="url(#steel)"/><rect x="25.72" y="9.98" width="0.30" height="12.03" rx="0.13" fill="#05070a" opacity=".5"/><rect x="26.77" y="9.98" width="1.33" height="12.03" rx="0.27" fill="url(#steel)"/><rect x="28.10" y="9.98" width="0.30" height="12.03" rx="0.13" fill="#05070a" opacity=".5"/><rect x="29.14" y="9.98" width="1.33" height="12.03" rx="0.27" fill="url(#steel)"/><rect x="30.48" y="9.98" width="0.30" height="12.03" rx="0.13" fill="#05070a" opacity=".5"/><rect x="31.52" y="9.98" width="1.33" height="12.03" rx="0.27" fill="url(#steel)"/><rect x="32.85" y="9.98" width="0.30" height="12.03" rx="0.13" fill="#05070a" opacity=".5"/><rect x="33.90" y="9.98" width="1.33" height="12.03" rx="0.27" fill="url(#steel)"/><rect x="35.23" y="9.98" width="0.30" height="12.03" rx="0.13" fill="#05070a" opacity=".5"/><rect x="36.27" y="9.98" width="1.33" height="12.03" rx="0.27" fill="url(#steel)"/><rect x="37.61" y="9.98" width="0.30" height="12.03" rx="0.13" fill="#05070a" opacity=".5"/><rect x="38.65" y="9.98" width="1.33" height="12.03" rx="0.27" fill="url(#steel)"/><rect x="39.98" y="9.98" width="0.30" height="12.03" rx="0.13" fill="#05070a" opacity=".5"/><rect x="40.25" y="9.67" width="0.51" height="12.67" rx="0.13" fill="#05070a" opacity=".55"/><rect x="40.51" y="8.53" width="6.08" height="14.95" rx="0.73" fill="url(#steel2)"/><rect x="42.68" y="6.12" width="1.79" height="19.76" rx="0.47" fill="url(#steel)"/><circle cx="45.37" cy="15.80" r="1.33" fill="url(#jewel)"/><rect x="46.59" y="9.67" width="2.88" height="12.67" rx="0.80" fill="url(#steel)"/><rect x="49.47" y="12.20" width="6.72" height="7.60" rx="0.47" fill="url(#blk)"/><circle cx="50.87" cy="15.87" r="0.97" fill="#d93025"/><circle cx="52.79" cy="15.93" r="0.57" fill="url(#steel2)"/><circle cx="54.27" cy="15.93" r="0.57" fill="url(#steel2)"/><circle cx="55.74" cy="15.93" r="0.57" fill="url(#steel2)"/><rect x="56.19" y="9.67" width="4.80" height="12.67" rx="0.80" fill="url(#steel)"/><rect x="60.73" y="9.67" width="0.51" height="12.67" rx="0.13" fill="#05070a" opacity=".55"/><rect x="60.99" y="9.03" width="1.79" height="13.93" rx="0.47" fill="#12161c"/><rect x="62.78" y="7.64" width="5.89" height="16.72" rx="0.87" fill="url(#steel2)"/><rect x="65.21" y="7.64" width="0.47" height="16.72" rx="0.13" fill="#0a0d12" opacity=".65"/><rect x="65.79" y="7.64" width="0.47" height="16.72" rx="0.13" fill="#0a0d12" opacity=".65"/><rect x="66.38" y="7.64" width="0.47" height="16.72" rx="0.13" fill="#0a0d12" opacity=".65"/><rect x="66.97" y="7.64" width="0.47" height="16.72" rx="0.13" fill="#0a0d12" opacity=".65"/><rect x="67.55" y="7.64" width="0.47" height="16.72" rx="0.13" fill="#0a0d12" opacity=".65"/><rect x="68.14" y="7.64" width="0.47" height="16.72" rx="0.13" fill="#0a0d12" opacity=".65"/><rect x="4.67" y="9.67" width="64.00" height="1.00" rx="0.50" fill="#fff" opacity=".32"/><rect x="4.67" y="21.27" width="64.00" height="1.07" rx="0.53" fill="#000" opacity=".38"/></g>
</svg>
