<svg xmlns="http://www.w3.org/2000/svg" width="1000" height="36" viewBox="0 0 1000 36" role="img" aria-label="lightsaber divider">
  <title>— lightsaber —</title>
  <metadata>Copyright (c) 2026 Joshuel Ranola (@joshuel09). All rights reserved. Unauthorised copying or redistribution prohibited. https://github.com/joshuel09</metadata>
  <defs>
    <linearGradient id="steel" x1="0" y1="0" x2="0" y2="1">
      <stop offset="0%" stop-color="#6f7884"/><stop offset="18%" stop-color="#eef2f7"/>
      <stop offset="40%" stop-color="#c3ccd6"/><stop offset="58%" stop-color="#8d96a2"/>
      <stop offset="80%" stop-color="#4c545e"/><stop offset="100%" stop-color="#242a32"/>
    </linearGradient>
    <linearGradient id="steel2" x1="0" y1="0" x2="0" y2="1">
      <stop offset="0%" stop-color="#9aa4b1"/><stop offset="20%" stop-color="#ffffff"/>
      <stop offset="45%" stop-color="#dbe2ea"/><stop offset="66%" stop-color="#97a1ad"/>
      <stop offset="100%" stop-color="#333b45"/>
    </linearGradient>
    <linearGradient id="blk" x1="0" y1="0" x2="0" y2="1">
      <stop offset="0%" stop-color="#454c56"/><stop offset="22%" stop-color="#1c2027"/>
      <stop offset="60%" stop-color="#0b0e13"/><stop offset="100%" stop-color="#030508"/>
    </linearGradient>
    <linearGradient id="brass2" x1="0" y1="0" x2="0" y2="1">
      <stop offset="0%" stop-color="#b08a33"/><stop offset="22%" stop-color="#ffeec0"/>
      <stop offset="52%" stop-color="#d4ab51"/><stop offset="100%" stop-color="#5e4512"/>
    </linearGradient>
    <radialGradient id="jewel">
      <stop offset="0%" stop-color="#fff3c4"/><stop offset="45%" stop-color="#e8a33d"/>
      <stop offset="100%" stop-color="#7a4a0d"/>
    </radialGradient>
    <linearGradient id="halo" x1="0" y1="0" x2="0" y2="1">
      <stop offset="0%" stop-color="#45E06A" stop-opacity="0"/>
      <stop offset="50%" stop-color="#45E06A" stop-opacity=".66"/>
      <stop offset="100%" stop-color="#45E06A" stop-opacity="0"/>
    </linearGradient>
    <radialGradient id="burst">
      <stop offset="0%" stop-color="#fff" stop-opacity=".95"/>
      <stop offset="42%" stop-color="#45E06A" stop-opacity=".7"/>
      <stop offset="100%" stop-color="#45E06A" stop-opacity="0"/>
    </radialGradient>
  </defs>
  <style>
    @keyframes tw { 0%,100% { opacity:.15 } 50% { opacity:.95 } }
    @keyframes hum  { from { opacity:.52 } to { opacity:.98 } }
    @keyframes humc { from { opacity:.80 } to { opacity:1 } }
    @keyframes blade { 0% { transform:scaleX(0) } 2.35% { transform:scaleX(0) } 4.53% { transform:scaleX(1.06) } 5.88% { transform:scaleX(1) } 23.09% { transform:scaleX(1) } 24.94% { transform:scaleX(0) } 32.66% { transform:scaleX(0) } 34.84% { transform:scaleX(1.06) } 36.19% { transform:scaleX(1) } 47.77% { transform:scaleX(1) } 49.62% { transform:scaleX(0) } 61.13% { transform:scaleX(0) } 63.31% { transform:scaleX(1.06) } 64.65% { transform:scaleX(1) } 85.81% { transform:scaleX(1) } 87.66% { transform:scaleX(0) } 100% { transform:scaleX(0) } }
    @keyframes cl0 { 0%,11.32% { opacity:0; transform:scale(.3) } 12.42% { opacity:1; transform:scale(1.12) } 14.35% { opacity:0; transform:scale(1.65) } 100% { opacity:0 } }
    @keyframes sp0 { 0%,11.32% { opacity:0; transform:scale(.2) } 12.42% { opacity:1 } 15.19% { opacity:0; transform:scale(2.5) } 100% { opacity:0 } }
    @keyframes cl1 { 0%,41.25% { opacity:0; transform:scale(.3) } 42.35% { opacity:1; transform:scale(1.12) } 44.28% { opacity:0; transform:scale(1.65) } 100% { opacity:0 } }
    @keyframes sp1 { 0%,41.25% { opacity:0; transform:scale(.2) } 42.35% { opacity:1 } 45.12% { opacity:0; transform:scale(2.5) } 100% { opacity:0 } }
    @keyframes cl2 { 0%,69.36% { opacity:0; transform:scale(.3) } 70.46% { opacity:1; transform:scale(1.12) } 72.39% { opacity:0; transform:scale(1.65) } 100% { opacity:0 } }
    @keyframes sp2 { 0%,69.36% { opacity:0; transform:scale(.2) } 70.46% { opacity:1 } 73.23% { opacity:0; transform:scale(2.5) } 100% { opacity:0 } }
    @keyframes cl3 { 0%,72.10% { opacity:0; transform:scale(.3) } 73.20% { opacity:1; transform:scale(1.12) } 75.13% { opacity:0; transform:scale(1.65) } 100% { opacity:0 } }
    @keyframes sp3 { 0%,72.10% { opacity:0; transform:scale(.2) } 73.20% { opacity:1 } 75.97% { opacity:0; transform:scale(2.5) } 100% { opacity:0 } }
    .bd   { transform-box: fill-box; transform-origin: 0% 50%;
             animation: blade 11.91s cubic-bezier(.2,.8,.3,1) infinite both; }
    .halo { animation: hum .17s ease-in-out infinite alternate both; }
    .core { animation: humc .12s ease-in-out infinite alternate both; }
    .cl   { opacity: 0; transform-box: view-box; animation: 11.91s linear infinite both; }
    .spk circle { transform-box: view-box; animation: 11.91s linear infinite both; }
    .c0 { animation-name: cl0; } .c0 .spk circle { animation-name: sp0; }
    .c1 { animation-name: cl1; } .c1 .spk circle { animation-name: sp1; }
    .c2 { animation-name: cl2; } .c2 .spk circle { animation-name: sp2; }
    .c3 { animation-name: cl3; } .c3 .spk circle { animation-name: sp3; }
    @media (prefers-reduced-motion: reduce) {
      .bd, .halo, .core, .cl, .spk circle, .st { animation: none; }
      .bd { transform: none; } .cl { opacity: 0; }
    }
  </style>
  <rect width="1000" height="36" fill="#000"/>
  <circle class="st" cx="36.8" cy="10.0" r="0.67" opacity="0.74" style="animation:tw 2.3s ease-in-out -1.38s infinite"/><circle class="st" cx="208.8" cy="10.1" r="0.76" opacity="0.88" style="animation:tw 2.9s ease-in-out -2.87s infinite"/><circle class="st" cx="167.6" cy="33.3" r="0.69" opacity="0.54" style="animation:tw 3.2s ease-in-out -2.74s infinite"/><circle class="st" cx="6.7" cy="9.7" r="0.95" opacity="0.60" style="animation:tw 2.5s ease-in-out -0.03s infinite"/><circle class="st" cx="40.0" cy="22.3" r="1.09" opacity="0.90" style="animation:tw 2.9s ease-in-out -0.07s infinite"/><circle class="st" cx="322.5" cy="28.3" r="0.99" opacity="0.74" style="animation:tw 2.5s ease-in-out -1.58s infinite"/><circle class="st" cx="477.4" cy="22.6" r="0.62" opacity="0.88" style="animation:tw 3.5s ease-in-out -0.49s infinite"/><circle class="st" cx="291.3" cy="31.4" r="0.63" opacity="0.87" style="animation:tw 2.9s ease-in-out -2.09s infinite"/><circle class="st" cx="704.7" cy="7.7" r="0.64" opacity="0.56" style="animation:tw 3.2s ease-in-out -2.08s infinite"/><circle class="st" cx="131.7" cy="31.9" r="0.72" opacity="0.56" style="animation:tw 2.8s ease-in-out -2.94s infinite"/><circle class="st" cx="559.9" cy="22.5" r="1.05" opacity="0.88" style="animation:tw 3.3s ease-in-out -1.25s infinite"/><circle class="st" cx="588.4" cy="32.4" r="0.96" opacity="0.71" style="animation:tw 2.7s ease-in-out -1.11s infinite"/><circle class="st" cx="735.8" cy="20.3" r="0.46" opacity="0.77" style="animation:tw 3.5s ease-in-out -2.39s infinite"/><circle class="st" cx="897.5" cy="32.8" r="0.80" opacity="0.81" style="animation:tw 2.7s ease-in-out -0.29s infinite"/><circle class="st" cx="353.2" cy="11.2" r="1.06" opacity="0.76" style="animation:tw 3.0s ease-in-out -1.87s infinite"/><circle class="st" cx="124.7" cy="19.2" r="0.91" opacity="0.63" style="animation:tw 2.5s ease-in-out -1.22s infinite"/><circle class="st" cx="323.6" cy="24.7" r="0.54" opacity="0.49" style="animation:tw 2.6s ease-in-out -2.09s infinite"/><circle class="st" cx="759.6" cy="23.7" r="1.06" opacity="0.61" style="animation:tw 2.2s ease-in-out -1.46s infinite"/><circle class="st" cx="443.7" cy="6.5" r="0.88" opacity="0.60" style="animation:tw 2.5s ease-in-out -0.98s infinite"/><circle class="st" cx="943.8" cy="0.3" r="0.68" opacity="0.58" style="animation:tw 2.5s ease-in-out -1.30s infinite"/><circle class="st" cx="220.4" cy="33.1" r="0.78" opacity="0.76" style="animation:tw 2.4s ease-in-out -1.39s infinite"/><circle class="st" cx="606.5" cy="30.3" r="0.61" opacity="0.66" style="animation:tw 3.4s ease-in-out -2.50s infinite"/><circle class="st" cx="227.5" cy="19.4" r="0.94" opacity="0.63" style="animation:tw 3.1s ease-in-out -1.99s infinite"/><circle class="st" cx="972.4" cy="19.9" r="0.89" opacity="0.61" style="animation:tw 3.2s ease-in-out -0.97s infinite"/><circle class="st" cx="499.9" cy="13.0" r="0.65" opacity="0.51" style="animation:tw 2.5s ease-in-out -1.63s infinite"/><circle class="st" cx="251.9" cy="1.7" r="0.97" opacity="0.58" style="animation:tw 3.5s ease-in-out -1.80s infinite"/><circle class="st" cx="389.1" cy="31.4" r="1.03" opacity="0.59" style="animation:tw 2.4s ease-in-out -1.92s infinite"/><circle class="st" cx="842.7" cy="21.9" r="0.96" opacity="0.64" style="animation:tw 3.1s ease-in-out -0.79s infinite"/><circle class="st" cx="406.9" cy="13.7" r="0.70" opacity="0.63" style="animation:tw 3.3s ease-in-out -0.51s infinite"/><circle class="st" cx="205.1" cy="9.2" r="1.08" opacity="0.69" style="animation:tw 2.3s ease-in-out -2.51s infinite"/><circle class="st" cx="873.5" cy="29.6" r="0.68" opacity="0.78" style="animation:tw 2.6s ease-in-out -0.41s infinite"/><circle class="st" cx="865.3" cy="30.0" r="0.59" opacity="0.85" style="animation:tw 2.2s ease-in-out -0.93s infinite"/><circle class="st" cx="13.0" cy="6.2" r="0.56" opacity="0.77" style="animation:tw 2.6s ease-in-out -0.57s infinite"/><circle class="st" cx="184.1" cy="11.2" r="1.01" opacity="0.72" style="animation:tw 2.3s ease-in-out -2.05s infinite"/><circle class="st" cx="536.2" cy="16.1" r="0.79" opacity="0.74" style="animation:tw 3.3s ease-in-out -1.52s infinite"/><circle class="st" cx="635.5" cy="16.8" r="0.86" opacity="0.62" style="animation:tw 2.8s ease-in-out -1.55s infinite"/><circle class="st" cx="715.0" cy="10.0" r="1.05" opacity="0.67" style="animation:tw 3.4s ease-in-out -2.07s infinite"/><circle class="st" cx="956.3" cy="24.6" r="0.73" opacity="0.63" style="animation:tw 3.1s ease-in-out -2.26s infinite"/><circle class="st" cx="839.0" cy="4.7" r="0.49" opacity="0.50" style="animation:tw 2.3s ease-in-out -0.17s infinite"/><circle class="st" cx="8.4" cy="9.0" r="0.52" opacity="0.76" style="animation:tw 3.1s ease-in-out -2.90s infinite"/><circle class="st" cx="960.5" cy="26.9" r="1.07" opacity="0.46" style="animation:tw 2.5s ease-in-out -2.78s infinite"/><circle class="st" cx="475.5" cy="7.4" r="0.94" opacity="0.64" style="animation:tw 3.0s ease-in-out -0.95s infinite"/><circle class="st" cx="241.7" cy="3.1" r="0.84" opacity="0.88" style="animation:tw 3.6s ease-in-out -2.30s infinite"/><circle class="st" cx="933.4" cy="13.0" r="0.64" opacity="0.87" style="animation:tw 3.0s ease-in-out -2.01s infinite"/><circle class="st" cx="12.5" cy="8.2" r="0.76" opacity="0.78" style="animation:tw 3.4s ease-in-out -2.27s infinite"/><circle class="st" cx="339.7" cy="13.7" r="1.01" opacity="0.90" style="animation:tw 2.9s ease-in-out -0.58s infinite"/>
  <g class="bd">
    <rect class="halo" x="53.5" y="7.5" width="937.5" height="21.0" fill="url(#halo)"/>
    <rect class="body" x="53.5" y="13.5" width="937.5" height="9.0" rx="4.5" fill="#45E06A" opacity=".9"/>
    <rect class="core" x="53.5" y="16.3" width="937.5" height="3.4" rx="1.7" fill="#fff"/>
    <circle cx="53.5" cy="18.0" r="11.2" fill="url(#burst)"/>
  </g>
  <g class="cl c0" style="transform-origin:894.9px 18.0px"><circle cx="894.9" cy="18.0" r="14.2" fill="url(#burst)"/><g class="spk" fill="#fff"><circle cx="894.2" cy="21.1" r="1.12" style="transform-origin:894.9px 18.0px"/><circle cx="884.2" cy="8.5" r="0.86" style="transform-origin:894.9px 18.0px"/><circle cx="888.1" cy="24.1" r="1.15" style="transform-origin:894.9px 18.0px"/><circle cx="898.0" cy="19.1" r="1.12" style="transform-origin:894.9px 18.0px"/><circle cx="884.3" cy="16.8" r="0.67" style="transform-origin:894.9px 18.0px"/><circle cx="907.1" cy="9.4" r="1.26" style="transform-origin:894.9px 18.0px"/></g></g><g class="cl c1" style="transform-origin:620.1px 18.0px"><circle cx="620.1" cy="18.0" r="14.2" fill="url(#burst)"/><g class="spk" fill="#fff"><circle cx="607.3" cy="21.6" r="0.83" style="transform-origin:620.1px 18.0px"/><circle cx="617.2" cy="24.7" r="0.54" style="transform-origin:620.1px 18.0px"/><circle cx="606.9" cy="26.1" r="0.98" style="transform-origin:620.1px 18.0px"/><circle cx="607.8" cy="27.5" r="1.38" style="transform-origin:620.1px 18.0px"/><circle cx="608.4" cy="16.5" r="0.65" style="transform-origin:620.1px 18.0px"/><circle cx="614.4" cy="20.4" r="0.67" style="transform-origin:620.1px 18.0px"/></g></g><g class="cl c2" style="transform-origin:631.4px 18.0px"><circle cx="631.4" cy="18.0" r="14.2" fill="url(#burst)"/><g class="spk" fill="#fff"><circle cx="637.3" cy="9.3" r="0.68" style="transform-origin:631.4px 18.0px"/><circle cx="640.9" cy="16.1" r="0.90" style="transform-origin:631.4px 18.0px"/><circle cx="634.3" cy="17.5" r="0.87" style="transform-origin:631.4px 18.0px"/><circle cx="617.3" cy="22.4" r="1.40" style="transform-origin:631.4px 18.0px"/><circle cx="645.7" cy="21.2" r="0.85" style="transform-origin:631.4px 18.0px"/><circle cx="627.3" cy="21.7" r="1.13" style="transform-origin:631.4px 18.0px"/></g></g><g class="cl c3" style="transform-origin:739.9px 18.0px"><circle cx="739.9" cy="18.0" r="14.2" fill="url(#burst)"/><g class="spk" fill="#fff"><circle cx="728.3" cy="12.8" r="0.85" style="transform-origin:739.9px 18.0px"/><circle cx="740.2" cy="24.0" r="0.98" style="transform-origin:739.9px 18.0px"/><circle cx="725.7" cy="24.3" r="0.91" style="transform-origin:739.9px 18.0px"/><circle cx="740.5" cy="12.6" r="0.91" style="transform-origin:739.9px 18.0px"/><circle cx="736.5" cy="23.3" r="0.62" style="transform-origin:739.9px 18.0px"/><circle cx="741.4" cy="11.7" r="1.15" style="transform-origin:739.9px 18.0px"/></g></g>
  <g><rect x="5.25" y="9.88" width="4.34" height="16.24" rx="2.55" fill="url(#steel2)"/><rect x="9.40" y="9.88" width="0.39" height="16.24" rx="0.15" fill="#05070a" opacity=".55"/><rect x="9.59" y="10.59" width="1.93" height="14.82" rx="0.52" fill="#12161c"/><rect x="11.52" y="10.88" width="9.65" height="14.25" rx="0.90" fill="url(#steel)"/><rect x="20.98" y="10.88" width="0.39" height="14.25" rx="0.15" fill="#05070a" opacity=".55"/><rect x="21.17" y="11.59" width="13.02" height="12.83" rx="0.52" fill="url(#blk)"/><rect x="21.65" y="11.59" width="1.20" height="12.83" rx="0.30" fill="url(#steel)"/><rect x="22.85" y="11.59" width="0.30" height="12.83" rx="0.15" fill="#05070a" opacity=".5"/><rect x="23.83" y="11.59" width="1.20" height="12.83" rx="0.30" fill="url(#steel)"/><rect x="25.03" y="11.59" width="0.30" height="12.83" rx="0.15" fill="#05070a" opacity=".5"/><rect x="26.00" y="11.59" width="1.20" height="12.83" rx="0.30" fill="url(#steel)"/><rect x="27.20" y="11.59" width="0.30" height="12.83" rx="0.15" fill="#05070a" opacity=".5"/><rect x="28.17" y="11.59" width="1.20" height="12.83" rx="0.30" fill="url(#steel)"/><rect x="29.37" y="11.59" width="0.30" height="12.83" rx="0.15" fill="#05070a" opacity=".5"/><rect x="30.34" y="11.59" width="1.20" height="12.83" rx="0.30" fill="url(#steel)"/><rect x="31.54" y="11.59" width="0.30" height="12.83" rx="0.15" fill="#05070a" opacity=".5"/><rect x="32.51" y="11.59" width="1.20" height="12.83" rx="0.30" fill="url(#steel)"/><rect x="33.71" y="11.59" width="0.30" height="12.83" rx="0.15" fill="#05070a" opacity=".5"/><rect x="34.00" y="10.88" width="0.39" height="14.25" rx="0.15" fill="#05070a" opacity=".55"/><rect x="34.19" y="10.02" width="2.99" height="15.96" rx="0.68" fill="url(#brass2)"/><rect x="37.18" y="10.88" width="6.66" height="14.25" rx="0.90" fill="url(#steel)"/><circle cx="40.27" cy="17.85" r="0.90" fill="#d93025"/><rect x="43.65" y="10.88" width="0.39" height="14.25" rx="0.15" fill="#05070a" opacity=".55"/><rect x="43.84" y="10.30" width="2.03" height="15.39" rx="0.52" fill="#12161c"/><rect x="45.87" y="8.88" width="7.62" height="18.24" rx="1.65" fill="url(#steel2)"/><rect x="48.89" y="8.88" width="0.52" height="18.24" rx="0.15" fill="#0a0d12" opacity=".65"/><rect x="49.85" y="8.88" width="0.52" height="18.24" rx="0.15" fill="#0a0d12" opacity=".65"/><rect x="50.82" y="8.88" width="0.52" height="18.24" rx="0.15" fill="#0a0d12" opacity=".65"/><rect x="51.78" y="8.88" width="0.52" height="18.24" rx="0.15" fill="#0a0d12" opacity=".65"/><rect x="52.75" y="8.88" width="0.52" height="18.24" rx="0.15" fill="#0a0d12" opacity=".65"/><rect x="5.25" y="10.88" width="48.24" height="1.12" rx="0.56" fill="#fff" opacity=".32"/><rect x="5.25" y="23.93" width="48.24" height="1.20" rx="0.60" fill="#000" opacity=".38"/></g>
</svg>
