<svg xmlns="http://www.w3.org/2000/svg" width="1000" height="36" viewBox="0 0 1000 36" role="img" aria-label="lightsaber divider">
  <title>— lightsaber —</title>
  <metadata>Copyright (c) 2026 Joshuel Ranola (@joshuel09). All rights reserved. Unauthorised copying or redistribution prohibited. https://github.com/joshuel09</metadata>
  <defs>
    <linearGradient id="steel" x1="0" y1="0" x2="0" y2="1">
      <stop offset="0%" stop-color="#6f7884"/><stop offset="18%" stop-color="#eef2f7"/>
      <stop offset="40%" stop-color="#c3ccd6"/><stop offset="58%" stop-color="#8d96a2"/>
      <stop offset="80%" stop-color="#4c545e"/><stop offset="100%" stop-color="#242a32"/>
    </linearGradient>
    <linearGradient id="steel2" x1="0" y1="0" x2="0" y2="1">
      <stop offset="0%" stop-color="#9aa4b1"/><stop offset="20%" stop-color="#ffffff"/>
      <stop offset="45%" stop-color="#dbe2ea"/><stop offset="66%" stop-color="#97a1ad"/>
      <stop offset="100%" stop-color="#333b45"/>
    </linearGradient>
    <linearGradient id="blk" x1="0" y1="0" x2="0" y2="1">
      <stop offset="0%" stop-color="#454c56"/><stop offset="22%" stop-color="#1c2027"/>
      <stop offset="60%" stop-color="#0b0e13"/><stop offset="100%" stop-color="#030508"/>
    </linearGradient>
    <linearGradient id="brass2" x1="0" y1="0" x2="0" y2="1">
      <stop offset="0%" stop-color="#b08a33"/><stop offset="22%" stop-color="#ffeec0"/>
      <stop offset="52%" stop-color="#d4ab51"/><stop offset="100%" stop-color="#5e4512"/>
    </linearGradient>
    <radialGradient id="jewel">
      <stop offset="0%" stop-color="#fff3c4"/><stop offset="45%" stop-color="#e8a33d"/>
      <stop offset="100%" stop-color="#7a4a0d"/>
    </radialGradient>
    <linearGradient id="halo" x1="0" y1="0" x2="0" y2="1">
      <stop offset="0%" stop-color="#FF3B3B" stop-opacity="0"/>
      <stop offset="50%" stop-color="#FF3B3B" stop-opacity=".66"/>
      <stop offset="100%" stop-color="#FF3B3B" stop-opacity="0"/>
    </linearGradient>
    <radialGradient id="burst">
      <stop offset="0%" stop-color="#fff" stop-opacity=".95"/>
      <stop offset="42%" stop-color="#FF3B3B" stop-opacity=".7"/>
      <stop offset="100%" stop-color="#FF3B3B" stop-opacity="0"/>
    </radialGradient>
  </defs>
  <style>
    @keyframes tw { 0%,100% { opacity:.15 } 50% { opacity:.95 } }
    @keyframes hum  { from { opacity:.52 } to { opacity:.98 } }
    @keyframes humc { from { opacity:.80 } to { opacity:1 } }
    @keyframes blade { 0% { transform:scaleX(0) } 2.06% { transform:scaleX(0) } 3.98% { transform:scaleX(1.06) } 5.16% { transform:scaleX(1) } 14.08% { transform:scaleX(1) } 15.70% { transform:scaleX(0) } 29.48% { transform:scaleX(0) } 31.39% { transform:scaleX(1.06) } 32.57% { transform:scaleX(1) } 55.12% { transform:scaleX(1) } 56.74% { transform:scaleX(0) } 61.83% { transform:scaleX(0) } 63.74% { transform:scaleX(1.06) } 64.92% { transform:scaleX(1) } 88.14% { transform:scaleX(1) } 89.76% { transform:scaleX(0) } 100% { transform:scaleX(0) } }
    @keyframes cl0 { 0%,8.28% { opacity:0; transform:scale(.3) } 9.25% { opacity:1; transform:scale(1.12) } 10.95% { opacity:0; transform:scale(1.65) } 100% { opacity:0 } }
    @keyframes sp0 { 0%,8.28% { opacity:0; transform:scale(.2) } 9.25% { opacity:1 } 11.68% { opacity:0; transform:scale(2.5) } 100% { opacity:0 } }
    @keyframes cl1 { 0%,10.32% { opacity:0; transform:scale(.3) } 11.28% { opacity:1; transform:scale(1.12) } 12.98% { opacity:0; transform:scale(1.65) } 100% { opacity:0 } }
    @keyframes sp1 { 0%,10.32% { opacity:0; transform:scale(.2) } 11.28% { opacity:1 } 13.72% { opacity:0; transform:scale(2.5) } 100% { opacity:0 } }
    @keyframes cl2 { 0%,47.65% { opacity:0; transform:scale(.3) } 48.62% { opacity:1; transform:scale(1.12) } 50.31% { opacity:0; transform:scale(1.65) } 100% { opacity:0 } }
    @keyframes sp2 { 0%,47.65% { opacity:0; transform:scale(.2) } 48.62% { opacity:1 } 51.05% { opacity:0; transform:scale(2.5) } 100% { opacity:0 } }
    @keyframes cl3 { 0%,80.09% { opacity:0; transform:scale(.3) } 81.06% { opacity:1; transform:scale(1.12) } 82.76% { opacity:0; transform:scale(1.65) } 100% { opacity:0 } }
    @keyframes sp3 { 0%,80.09% { opacity:0; transform:scale(.2) } 81.06% { opacity:1 } 83.49% { opacity:0; transform:scale(2.5) } 100% { opacity:0 } }
    .bd   { transform-box: fill-box; transform-origin: 0% 50%;
             animation: blade 13.57s cubic-bezier(.2,.8,.3,1) infinite both; }
    .halo { animation: hum .17s ease-in-out infinite alternate both; }
    .core { animation: humc .12s ease-in-out infinite alternate both; }
    .cl   { opacity: 0; transform-box: view-box; animation: 13.57s linear infinite both; }
    .spk circle { transform-box: view-box; animation: 13.57s linear infinite both; }
    .c0 { animation-name: cl0; } .c0 .spk circle { animation-name: sp0; }
    .c1 { animation-name: cl1; } .c1 .spk circle { animation-name: sp1; }
    .c2 { animation-name: cl2; } .c2 .spk circle { animation-name: sp2; }
    .c3 { animation-name: cl3; } .c3 .spk circle { animation-name: sp3; }
    @media (prefers-reduced-motion: reduce) {
      .bd, .halo, .core, .cl, .spk circle, .st { animation: none; }
      .bd { transform: none; } .cl { opacity: 0; }
    }
  </style>
  <rect width="1000" height="36" fill="#000"/>
  <circle class="st" cx="190.7" cy="26.3" r="0.54" opacity="0.74" style="animation:tw 2.4s ease-in-out -1.26s infinite"/><circle class="st" cx="212.9" cy="9.7" r="1.08" opacity="0.81" style="animation:tw 2.6s ease-in-out -2.65s infinite"/><circle class="st" cx="210.7" cy="14.2" r="1.01" opacity="0.74" style="animation:tw 2.3s ease-in-out -2.97s infinite"/><circle class="st" cx="213.2" cy="9.3" r="0.95" opacity="0.60" style="animation:tw 2.6s ease-in-out -0.22s infinite"/><circle class="st" cx="90.1" cy="21.0" r="0.61" opacity="0.72" style="animation:tw 2.7s ease-in-out -1.36s infinite"/><circle class="st" cx="959.1" cy="17.4" r="0.82" opacity="0.84" style="animation:tw 2.5s ease-in-out -0.46s infinite"/><circle class="st" cx="908.4" cy="29.4" r="0.61" opacity="0.54" style="animation:tw 3.2s ease-in-out -2.82s infinite"/><circle class="st" cx="196.6" cy="34.2" r="1.02" opacity="0.72" style="animation:tw 2.8s ease-in-out -0.31s infinite"/><circle class="st" cx="38.7" cy="34.7" r="0.60" opacity="0.77" style="animation:tw 2.6s ease-in-out -2.47s infinite"/><circle class="st" cx="596.5" cy="10.6" r="0.56" opacity="0.77" style="animation:tw 2.3s ease-in-out -0.69s infinite"/><circle class="st" cx="559.4" cy="30.7" r="0.85" opacity="0.58" style="animation:tw 3.5s ease-in-out -0.61s infinite"/><circle class="st" cx="16.6" cy="9.7" r="0.74" opacity="0.48" style="animation:tw 2.4s ease-in-out -1.11s infinite"/><circle class="st" cx="572.2" cy="4.7" r="0.69" opacity="0.85" style="animation:tw 3.6s ease-in-out -1.97s infinite"/><circle class="st" cx="691.2" cy="21.0" r="0.54" opacity="0.47" style="animation:tw 2.2s ease-in-out -2.73s infinite"/><circle class="st" cx="701.0" cy="34.7" r="0.46" opacity="0.74" style="animation:tw 2.9s ease-in-out -2.19s infinite"/><circle class="st" cx="318.9" cy="36.0" r="0.50" opacity="0.70" style="animation:tw 3.2s ease-in-out -2.70s infinite"/><circle class="st" cx="737.1" cy="25.3" r="0.97" opacity="0.86" style="animation:tw 2.7s ease-in-out -2.06s infinite"/><circle class="st" cx="900.8" cy="31.4" r="0.72" opacity="0.81" style="animation:tw 3.4s ease-in-out -1.72s infinite"/><circle class="st" cx="625.0" cy="13.8" r="0.83" opacity="0.72" style="animation:tw 2.3s ease-in-out -1.92s infinite"/><circle class="st" cx="993.3" cy="31.7" r="0.92" opacity="0.62" style="animation:tw 3.2s ease-in-out -1.74s infinite"/><circle class="st" cx="440.5" cy="30.2" r="0.50" opacity="0.79" style="animation:tw 2.2s ease-in-out -1.80s infinite"/><circle class="st" cx="481.0" cy="8.3" r="0.90" opacity="0.67" style="animation:tw 3.1s ease-in-out -2.76s infinite"/><circle class="st" cx="255.8" cy="0.4" r="0.65" opacity="0.76" style="animation:tw 2.5s ease-in-out -0.51s infinite"/><circle class="st" cx="905.7" cy="23.8" r="0.74" opacity="0.85" style="animation:tw 2.7s ease-in-out -2.00s infinite"/><circle class="st" cx="198.5" cy="15.5" r="0.97" opacity="0.86" style="animation:tw 3.4s ease-in-out -1.15s infinite"/><circle class="st" cx="583.1" cy="11.4" r="0.54" opacity="0.67" style="animation:tw 3.4s ease-in-out -2.55s infinite"/><circle class="st" cx="711.2" cy="34.2" r="0.63" opacity="0.53" style="animation:tw 2.8s ease-in-out -0.83s infinite"/><circle class="st" cx="214.1" cy="14.9" r="0.86" opacity="0.67" style="animation:tw 2.6s ease-in-out -2.52s infinite"/><circle class="st" cx="982.0" cy="16.3" r="0.50" opacity="0.46" style="animation:tw 3.4s ease-in-out -0.12s infinite"/><circle class="st" cx="708.6" cy="20.5" r="0.65" opacity="0.81" style="animation:tw 2.2s ease-in-out -0.41s infinite"/><circle class="st" cx="454.8" cy="0.9" r="0.99" opacity="0.56" style="animation:tw 2.4s ease-in-out -0.14s infinite"/><circle class="st" cx="629.2" cy="16.1" r="0.86" opacity="0.74" style="animation:tw 3.3s ease-in-out -2.88s infinite"/><circle class="st" cx="684.5" cy="7.2" r="0.76" opacity="0.53" style="animation:tw 2.2s ease-in-out -1.42s infinite"/><circle class="st" cx="714.2" cy="6.4" r="0.63" opacity="0.61" style="animation:tw 3.2s ease-in-out -1.56s infinite"/><circle class="st" cx="614.4" cy="27.2" r="0.71" opacity="0.81" style="animation:tw 3.5s ease-in-out -0.26s infinite"/><circle class="st" cx="932.6" cy="26.0" r="0.53" opacity="0.65" style="animation:tw 3.1s ease-in-out -2.73s infinite"/><circle class="st" cx="376.8" cy="20.5" r="1.02" opacity="0.81" style="animation:tw 3.5s ease-in-out -1.39s infinite"/><circle class="st" cx="651.3" cy="7.4" r="0.92" opacity="0.82" style="animation:tw 3.1s ease-in-out -2.15s infinite"/><circle class="st" cx="213.3" cy="32.4" r="1.09" opacity="0.89" style="animation:tw 3.0s ease-in-out -2.37s infinite"/><circle class="st" cx="320.4" cy="32.8" r="1.01" opacity="0.61" style="animation:tw 2.3s ease-in-out -1.32s infinite"/><circle class="st" cx="550.3" cy="27.7" r="0.77" opacity="0.46" style="animation:tw 3.3s ease-in-out -0.19s infinite"/><circle class="st" cx="799.9" cy="6.2" r="0.67" opacity="0.80" style="animation:tw 2.4s ease-in-out -0.45s infinite"/><circle class="st" cx="516.5" cy="26.0" r="1.00" opacity="0.76" style="animation:tw 3.5s ease-in-out -1.48s infinite"/><circle class="st" cx="949.2" cy="3.1" r="0.59" opacity="0.69" style="animation:tw 2.6s ease-in-out -2.19s infinite"/><circle class="st" cx="638.9" cy="18.8" r="1.00" opacity="0.70" style="animation:tw 2.6s ease-in-out -1.14s infinite"/><circle class="st" cx="845.3" cy="32.4" r="0.59" opacity="0.83" style="animation:tw 3.6s ease-in-out -1.57s infinite"/>
  <g class="bd">
    <rect class="halo" x="87.3" y="7.5" width="903.7" height="21.0" fill="url(#halo)"/>
    <rect class="body" x="87.3" y="13.5" width="903.7" height="9.0" rx="4.5" fill="#FF3B3B" opacity=".9"/>
    <rect class="core" x="87.3" y="16.3" width="903.7" height="3.4" rx="1.7" fill="#fff"/>
    <circle cx="87.3" cy="18.0" r="11.2" fill="url(#burst)"/>
  </g>
  <g class="cl c0" style="transform-origin:826.4px 18.0px"><circle cx="826.4" cy="18.0" r="14.2" fill="url(#burst)"/><g class="spk" fill="#fff"><circle cx="825.0" cy="19.2" r="1.36" style="transform-origin:826.4px 18.0px"/><circle cx="825.4" cy="18.2" r="1.05" style="transform-origin:826.4px 18.0px"/><circle cx="817.0" cy="18.2" r="1.09" style="transform-origin:826.4px 18.0px"/><circle cx="835.2" cy="10.1" r="0.80" style="transform-origin:826.4px 18.0px"/><circle cx="814.1" cy="24.0" r="1.15" style="transform-origin:826.4px 18.0px"/><circle cx="812.7" cy="27.4" r="1.39" style="transform-origin:826.4px 18.0px"/></g></g><g class="cl c1" style="transform-origin:766.2px 18.0px"><circle cx="766.2" cy="18.0" r="14.2" fill="url(#burst)"/><g class="spk" fill="#fff"><circle cx="770.8" cy="20.3" r="0.67" style="transform-origin:766.2px 18.0px"/><circle cx="751.6" cy="18.6" r="0.58" style="transform-origin:766.2px 18.0px"/><circle cx="756.9" cy="13.0" r="0.55" style="transform-origin:766.2px 18.0px"/><circle cx="765.1" cy="16.8" r="1.28" style="transform-origin:766.2px 18.0px"/><circle cx="766.7" cy="20.7" r="0.97" style="transform-origin:766.2px 18.0px"/><circle cx="771.0" cy="17.2" r="0.78" style="transform-origin:766.2px 18.0px"/></g></g><g class="cl c2" style="transform-origin:721.5px 18.0px"><circle cx="721.5" cy="18.0" r="14.2" fill="url(#burst)"/><g class="spk" fill="#fff"><circle cx="736.4" cy="27.7" r="1.28" style="transform-origin:721.5px 18.0px"/><circle cx="727.7" cy="14.4" r="0.73" style="transform-origin:721.5px 18.0px"/><circle cx="715.2" cy="9.6" r="1.21" style="transform-origin:721.5px 18.0px"/><circle cx="718.5" cy="24.8" r="0.87" style="transform-origin:721.5px 18.0px"/><circle cx="735.2" cy="24.8" r="0.53" style="transform-origin:721.5px 18.0px"/><circle cx="712.8" cy="26.0" r="0.95" style="transform-origin:721.5px 18.0px"/></g></g><g class="cl c3" style="transform-origin:689.1px 18.0px"><circle cx="689.1" cy="18.0" r="14.2" fill="url(#burst)"/><g class="spk" fill="#fff"><circle cx="703.5" cy="16.0" r="0.59" style="transform-origin:689.1px 18.0px"/><circle cx="693.0" cy="23.4" r="0.77" style="transform-origin:689.1px 18.0px"/><circle cx="676.7" cy="14.7" r="1.39" style="transform-origin:689.1px 18.0px"/><circle cx="696.8" cy="10.6" r="0.75" style="transform-origin:689.1px 18.0px"/><circle cx="677.1" cy="9.4" r="1.24" style="transform-origin:689.1px 18.0px"/><circle cx="679.4" cy="19.2" r="0.93" style="transform-origin:689.1px 18.0px"/></g></g>
  <g><rect x="5.25" y="9.31" width="4.92" height="17.38" rx="1.20" fill="url(#steel2)"/><rect x="9.85" y="9.31" width="0.66" height="17.38" rx="0.15" fill="#05070a" opacity=".55"/><rect x="10.17" y="10.45" width="2.05" height="15.11" rx="0.52" fill="#12161c"/><rect x="12.23" y="10.88" width="20.11" height="14.25" rx="0.52" fill="url(#blk)"/><rect x="12.73" y="10.88" width="1.50" height="14.25" rx="0.30" fill="url(#steel)"/><rect x="14.23" y="10.88" width="0.30" height="14.25" rx="0.15" fill="#05070a" opacity=".5"/><rect x="15.25" y="10.88" width="1.50" height="14.25" rx="0.30" fill="url(#steel)"/><rect x="16.75" y="10.88" width="0.30" height="14.25" rx="0.15" fill="#05070a" opacity=".5"/><rect x="17.76" y="10.88" width="1.50" height="14.25" rx="0.30" fill="url(#steel)"/><rect x="19.26" y="10.88" width="0.30" height="14.25" rx="0.15" fill="#05070a" opacity=".5"/><rect x="20.27" y="10.88" width="1.50" height="14.25" rx="0.30" fill="url(#steel)"/><rect x="21.77" y="10.88" width="0.30" height="14.25" rx="0.15" fill="#05070a" opacity=".5"/><rect x="22.79" y="10.88" width="1.50" height="14.25" rx="0.30" fill="url(#steel)"/><rect x="24.29" y="10.88" width="0.30" height="14.25" rx="0.15" fill="#05070a" opacity=".5"/><rect x="25.30" y="10.88" width="1.50" height="14.25" rx="0.30" fill="url(#steel)"/><rect x="26.80" y="10.88" width="0.30" height="14.25" rx="0.15" fill="#05070a" opacity=".5"/><rect x="27.82" y="10.88" width="1.50" height="14.25" rx="0.30" fill="url(#steel)"/><rect x="29.32" y="10.88" width="0.30" height="14.25" rx="0.15" fill="#05070a" opacity=".5"/><rect x="30.33" y="10.88" width="1.50" height="14.25" rx="0.30" fill="url(#steel)"/><rect x="31.83" y="10.88" width="0.30" height="14.25" rx="0.15" fill="#05070a" opacity=".5"/><rect x="32.01" y="10.88" width="0.66" height="14.25" rx="0.15" fill="#05070a" opacity=".55"/><rect x="32.34" y="9.88" width="3.45" height="16.24" rx="0.75" fill="url(#steel2)"/><rect x="35.78" y="10.88" width="15.43" height="14.25" rx="0.52" fill="url(#blk)"/><rect x="37.26" y="13.87" width="10.67" height="8.26" rx="0.45" fill="#06080c"/><circle cx="39.72" cy="17.93" r="1.09" fill="#d93025"/><circle cx="42.60" cy="18.00" r="0.68" fill="url(#steel2)"/><circle cx="45.22" cy="18.00" r="0.68" fill="url(#steel2)"/><rect x="50.89" y="10.88" width="0.66" height="14.25" rx="0.15" fill="#05070a" opacity=".55"/><rect x="51.21" y="9.88" width="3.45" height="16.24" rx="0.75" fill="url(#steel2)"/><rect x="54.66" y="10.88" width="16.25" height="14.25" rx="0.52" fill="url(#blk)"/><rect x="58.60" y="10.88" width="0.49" height="14.25" rx="0.15" fill="#05070a" opacity=".7"/><rect x="62.71" y="10.88" width="0.49" height="14.25" rx="0.15" fill="#05070a" opacity=".7"/><rect x="66.81" y="10.88" width="0.49" height="14.25" rx="0.15" fill="#05070a" opacity=".7"/><rect x="70.91" y="9.74" width="3.69" height="16.53" rx="0.75" fill="url(#steel)"/><rect x="74.61" y="8.45" width="12.72" height="19.10" rx="0.98" fill="url(#steel2)"/><rect x="76.99" y="8.45" width="0.52" height="19.10" rx="0.15" fill="#0a0d12" opacity=".65"/><rect x="78.18" y="8.45" width="0.52" height="19.10" rx="0.15" fill="#0a0d12" opacity=".65"/><rect x="79.36" y="8.45" width="0.52" height="19.10" rx="0.15" fill="#0a0d12" opacity=".65"/><rect x="80.55" y="8.45" width="0.52" height="19.10" rx="0.15" fill="#0a0d12" opacity=".65"/><rect x="81.73" y="8.45" width="0.52" height="19.10" rx="0.15" fill="#0a0d12" opacity=".65"/><rect x="82.92" y="8.45" width="0.52" height="19.10" rx="0.15" fill="#0a0d12" opacity=".65"/><rect x="84.10" y="8.45" width="0.52" height="19.10" rx="0.15" fill="#0a0d12" opacity=".65"/><rect x="85.29" y="8.45" width="0.52" height="19.10" rx="0.15" fill="#0a0d12" opacity=".65"/><rect x="86.47" y="8.45" width="0.52" height="19.10" rx="0.15" fill="#0a0d12" opacity=".65"/><rect x="5.25" y="10.88" width="82.08" height="1.12" rx="0.56" fill="#fff" opacity=".32"/><rect x="5.25" y="23.93" width="82.08" height="1.20" rx="0.60" fill="#000" opacity=".38"/></g>
</svg>
